<svg width="207" height="56" viewBox="0 0 207 56" fill="none" xmlns="http://www.w3.org/2000/svg">
<path d="M52.952 29.352C53.368 29.352 53.7333 29.2987 54.048 29.192C54.368 29.0853 54.632 28.936 54.84 28.744C55.0533 28.5467 55.2133 28.3093 55.32 28.032C55.4267 27.7547 55.48 27.4453 55.48 27.104C55.48 26.768 55.4267 26.4667 55.32 26.2C55.2187 25.9333 55.064 25.7067 54.856 25.52C54.648 25.3333 54.384 25.192 54.064 25.096C53.7493 24.9947 53.3787 24.944 52.952 24.944H51.24V29.352H52.952ZM52.952 23.48C53.704 23.48 54.3547 23.568 54.904 23.744C55.4587 23.92 55.9147 24.168 56.272 24.488C56.6347 24.8027 56.904 25.184 57.08 25.632C57.256 26.0747 57.344 26.5653 57.344 27.104C57.344 27.6533 57.2507 28.1573 57.064 28.616C56.8773 29.0693 56.6 29.4613 56.232 29.792C55.864 30.1173 55.4053 30.3733 54.856 30.56C54.312 30.7413 53.6773 30.832 52.952 30.832H51.24V35H49.368V23.48H52.952ZM60.297 28.352C60.553 27.8347 60.8623 27.4293 61.225 27.136C61.5877 26.8373 62.0223 26.688 62.529 26.688C62.705 26.688 62.8703 26.7093 63.025 26.752C63.1797 26.7893 63.3183 26.848 63.441 26.928L63.321 28.224C63.2997 28.3147 63.265 28.3787 63.217 28.416C63.1743 28.448 63.1157 28.464 63.041 28.464C62.961 28.464 62.8463 28.4507 62.697 28.424C62.5477 28.392 62.3903 28.376 62.225 28.376C61.985 28.376 61.7717 28.4107 61.585 28.48C61.4037 28.5493 61.2383 28.6507 61.089 28.784C60.945 28.9173 60.817 29.08 60.705 29.272C60.593 29.464 60.489 29.6827 60.393 29.928V35H58.673V26.84H59.673C59.8543 26.84 59.9797 26.8747 60.049 26.944C60.1183 27.008 60.1663 27.1227 60.193 27.288L60.297 28.352ZM67.826 26.712C68.4287 26.712 68.9727 26.8107 69.458 27.008C69.9487 27.2053 70.3647 27.4853 70.706 27.848C71.0527 28.2107 71.3193 28.6507 71.506 29.168C71.6927 29.6853 71.786 30.2667 71.786 30.912C71.786 31.5573 71.6927 32.1387 71.506 32.656C71.3193 33.1733 71.0527 33.616 70.706 33.984C70.3647 34.3467 69.9487 34.6267 69.458 34.824C68.9727 35.0213 68.4287 35.12 67.826 35.12C67.218 35.12 66.6687 35.0213 66.178 34.824C65.6927 34.6267 65.2767 34.3467 64.93 33.984C64.5833 33.616 64.3167 33.1733 64.13 32.656C63.9433 32.1387 63.85 31.5573 63.85 30.912C63.85 30.2667 63.9433 29.6853 64.13 29.168C64.3167 28.6507 64.5833 28.2107 64.93 27.848C65.2767 27.4853 65.6927 27.2053 66.178 27.008C66.6687 26.8107 67.218 26.712 67.826 26.712ZM67.826 33.776C68.562 33.776 69.1087 33.5307 69.466 33.04C69.8287 32.544 70.01 31.8373 70.01 30.92C70.01 30.0027 69.8287 29.296 69.466 28.8C69.1087 28.2987 68.562 28.048 67.826 28.048C67.0793 28.048 66.5247 28.2987 66.162 28.8C65.7993 29.296 65.618 30.0027 65.618 30.92C65.618 31.8373 65.7993 32.544 66.162 33.04C66.5247 33.5307 67.0793 33.776 67.826 33.776ZM73.8111 35V28.208L73.0111 28.096C72.8778 28.0693 72.7685 28.0213 72.6831 27.952C72.6031 27.8827 72.5631 27.784 72.5631 27.656V26.952H73.8111V26.608C73.8111 26.1067 73.8911 25.6453 74.0511 25.224C74.2111 24.8027 74.4538 24.4373 74.7791 24.128C75.1045 23.8187 75.5098 23.5787 75.9951 23.408C76.4858 23.232 77.0591 23.144 77.7151 23.144C77.9285 23.144 78.1471 23.1573 78.3711 23.184C78.6005 23.2107 78.7951 23.2507 78.9551 23.304L78.8991 24.2C78.8885 24.312 78.8218 24.376 78.6991 24.392C78.5765 24.4027 78.4138 24.408 78.2111 24.408C77.7151 24.408 77.2938 24.456 76.9471 24.552C76.6005 24.6427 76.3178 24.784 76.0991 24.976C75.8805 25.1627 75.7205 25.3973 75.6191 25.68C75.5231 25.9573 75.4751 26.2827 75.4751 26.656V26.952H80.4751V35H78.7551V28.192H75.5311V35H73.8111ZM84.4094 23.16V35H82.6894V23.16H84.4094ZM91.8844 30C91.8844 29.712 91.8417 29.4453 91.7564 29.2C91.6764 28.9493 91.5564 28.7333 91.3964 28.552C91.2364 28.3653 91.0364 28.2213 90.7964 28.12C90.5617 28.0133 90.2897 27.96 89.9804 27.96C89.3564 27.96 88.8657 28.1387 88.5084 28.496C88.151 28.8533 87.9244 29.3547 87.8284 30H91.8844ZM87.7804 31.056C87.8017 31.52 87.8737 31.9227 87.9964 32.264C88.119 32.6 88.2817 32.88 88.4844 33.104C88.6924 33.328 88.9377 33.496 89.2204 33.608C89.5084 33.7147 89.8284 33.768 90.1804 33.768C90.5164 33.768 90.807 33.7307 91.0524 33.656C91.2977 33.576 91.511 33.4907 91.6924 33.4C91.8737 33.304 92.0284 33.2187 92.1564 33.144C92.2844 33.064 92.4017 33.024 92.5084 33.024C92.647 33.024 92.7537 33.0773 92.8284 33.184L93.3164 33.816C93.1137 34.056 92.8844 34.2587 92.6284 34.424C92.3724 34.5893 92.1004 34.7253 91.8124 34.832C91.5244 34.9333 91.2284 35.0053 90.9244 35.048C90.6204 35.096 90.3244 35.12 90.0364 35.12C89.471 35.12 88.9457 35.0267 88.4604 34.84C87.9804 34.648 87.5617 34.368 87.2044 34C86.8524 33.632 86.575 33.176 86.3724 32.632C86.175 32.088 86.0764 31.4613 86.0764 30.752C86.0764 30.1867 86.1644 29.6587 86.3404 29.168C86.5217 28.6773 86.7777 28.2507 87.1084 27.888C87.4444 27.5253 87.8497 27.24 88.3244 27.032C88.8044 26.8187 89.3457 26.712 89.9484 26.712C90.4497 26.712 90.9137 26.7947 91.3404 26.96C91.767 27.12 92.135 27.3573 92.4444 27.672C92.7537 27.9867 92.9937 28.3733 93.1644 28.832C93.3404 29.2853 93.4284 29.8027 93.4284 30.384C93.4284 30.6507 93.399 30.8293 93.3404 30.92C93.2817 31.0107 93.175 31.056 93.0204 31.056H87.7804Z" fill="#5F6B72"/>
<path d="M6 38H18H19C20.104 38 21 37.104 21 36V20C21 18.896 20.104 18 19 18H18H6H5C3.896 18 3 18.896 3 20V36C3 37.104 3.896 38 5 38H6ZM12 20.999C13.647 20.999 15 22.35 15 23.999C15 25.647 13.647 27 12 27C10.353 27 9 25.647 9 23.999C9 22.35 10.353 20.999 12 20.999ZM6 33.25C6 31.031 8.705 28.75 12 28.75C15.295 28.75 18 31.031 18 33.25V34H6V33.25Z" fill="#5F6B72"/>
</svg>
