<svg width="207" height="56" viewBox="0 0 207 56" fill="none" xmlns="http://www.w3.org/2000/svg">
<path d="M61.624 23.48V35H59.976V27.104C59.976 26.976 59.9787 26.8373 59.984 26.688C59.9947 26.5333 60.008 26.3787 60.024 26.224L56.32 33.064C56.176 33.3467 55.9547 33.488 55.656 33.488H55.392C55.088 33.488 54.8667 33.3467 54.728 33.064L50.968 26.208C50.984 26.3627 50.9947 26.5173 51 26.672C51.0107 26.8267 51.016 26.9707 51.016 27.104V35H49.368V23.48H50.768C50.9333 23.48 51.0613 23.496 51.152 23.528C51.2427 23.5547 51.3253 23.6427 51.4 23.792L55.096 30.488C55.176 30.6427 55.2507 30.8027 55.32 30.968C55.3947 31.128 55.4613 31.2933 55.52 31.464C55.584 31.2933 55.6507 31.1253 55.72 30.96C55.7947 30.7893 55.872 30.6267 55.952 30.472L59.592 23.792C59.6667 23.6427 59.7493 23.5547 59.84 23.528C59.9307 23.496 60.0587 23.48 60.224 23.48H61.624ZM69.1344 30C69.1344 29.712 69.0917 29.4453 69.0064 29.2C68.9264 28.9493 68.8064 28.7333 68.6464 28.552C68.4864 28.3653 68.2864 28.2213 68.0464 28.12C67.8117 28.0133 67.5397 27.96 67.2304 27.96C66.6064 27.96 66.1157 28.1387 65.7584 28.496C65.401 28.8533 65.1744 29.3547 65.0784 30H69.1344ZM65.0304 31.056C65.0517 31.52 65.1237 31.9227 65.2464 32.264C65.369 32.6 65.5317 32.88 65.7344 33.104C65.9424 33.328 66.1877 33.496 66.4704 33.608C66.7584 33.7147 67.0784 33.768 67.4304 33.768C67.7664 33.768 68.057 33.7307 68.3024 33.656C68.5477 33.576 68.761 33.4907 68.9424 33.4C69.1237 33.304 69.2784 33.2187 69.4064 33.144C69.5344 33.064 69.6517 33.024 69.7584 33.024C69.897 33.024 70.0037 33.0773 70.0784 33.184L70.5664 33.816C70.3637 34.056 70.1344 34.2587 69.8784 34.424C69.6224 34.5893 69.3504 34.7253 69.0624 34.832C68.7744 34.9333 68.4784 35.0053 68.1744 35.048C67.8704 35.096 67.5744 35.12 67.2864 35.12C66.721 35.12 66.1957 35.0267 65.7104 34.84C65.2304 34.648 64.8117 34.368 64.4544 34C64.1024 33.632 63.825 33.176 63.6224 32.632C63.425 32.088 63.3264 31.4613 63.3264 30.752C63.3264 30.1867 63.4144 29.6587 63.5904 29.168C63.7717 28.6773 64.0277 28.2507 64.3584 27.888C64.6944 27.5253 65.0997 27.24 65.5744 27.032C66.0544 26.8187 66.5957 26.712 67.1984 26.712C67.6997 26.712 68.1637 26.7947 68.5904 26.96C69.017 27.12 69.385 27.3573 69.6944 27.672C70.0037 27.9867 70.2437 28.3733 70.4144 28.832C70.5904 29.2853 70.6784 29.8027 70.6784 30.384C70.6784 30.6507 70.649 30.8293 70.5904 30.92C70.5317 31.0107 70.425 31.056 70.2704 31.056H65.0304ZM77.1544 28.32C77.1117 28.3947 77.0637 28.448 77.0104 28.48C76.957 28.512 76.8904 28.528 76.8104 28.528C76.7197 28.528 76.621 28.5013 76.5144 28.448C76.4077 28.3893 76.2824 28.3253 76.1384 28.256C75.9944 28.1867 75.8237 28.1253 75.6264 28.072C75.4344 28.0133 75.2077 27.984 74.9464 27.984C74.733 27.984 74.5384 28.0107 74.3624 28.064C74.1917 28.112 74.045 28.184 73.9224 28.28C73.805 28.3707 73.7144 28.48 73.6504 28.608C73.5864 28.7307 73.5544 28.864 73.5544 29.008C73.5544 29.2 73.613 29.36 73.7304 29.488C73.8477 29.616 74.0024 29.728 74.1944 29.824C74.3864 29.9147 74.605 29.9973 74.8504 30.072C75.0957 30.1467 75.3464 30.2267 75.6024 30.312C75.8584 30.3973 76.109 30.496 76.3544 30.608C76.5997 30.72 76.8184 30.8587 77.0104 31.024C77.2024 31.184 77.357 31.3813 77.4744 31.616C77.5917 31.8453 77.6504 32.1253 77.6504 32.456C77.6504 32.84 77.581 33.1947 77.4424 33.52C77.3037 33.8453 77.101 34.128 76.8344 34.368C76.5677 34.608 76.2344 34.7947 75.8344 34.928C75.4397 35.0613 74.9864 35.128 74.4744 35.128C74.1917 35.128 73.917 35.1013 73.6504 35.048C73.389 35 73.1384 34.9333 72.8984 34.848C72.6637 34.7573 72.4424 34.6507 72.2344 34.528C72.0317 34.4053 71.8504 34.272 71.6904 34.128L72.0904 33.472C72.1384 33.392 72.197 33.3307 72.2664 33.288C72.341 33.24 72.4317 33.216 72.5384 33.216C72.6504 33.216 72.7597 33.2533 72.8664 33.328C72.9784 33.3973 73.1064 33.4747 73.2504 33.56C73.3997 33.6453 73.5784 33.7253 73.7864 33.8C73.9944 33.8693 74.253 33.904 74.5624 33.904C74.8184 33.904 75.0397 33.8747 75.2264 33.816C75.413 33.752 75.5677 33.6667 75.6904 33.56C75.813 33.4533 75.9037 33.3333 75.9624 33.2C76.021 33.0613 76.0504 32.9147 76.0504 32.76C76.0504 32.552 75.9917 32.3813 75.8744 32.248C75.757 32.1147 75.5997 32 75.4024 31.904C75.2104 31.808 74.989 31.7227 74.7384 31.648C74.493 31.5733 74.2424 31.4933 73.9864 31.408C73.7304 31.3227 73.477 31.224 73.2264 31.112C72.981 31 72.7597 30.8587 72.5624 30.688C72.3704 30.512 72.2157 30.3013 72.0984 30.056C71.981 29.8053 71.9224 29.5013 71.9224 29.144C71.9224 28.8187 71.9864 28.5093 72.1144 28.216C72.2477 27.9227 72.4397 27.664 72.6904 27.44C72.9464 27.216 73.2584 27.04 73.6264 26.912C73.9997 26.7787 74.429 26.712 74.9144 26.712C75.4637 26.712 75.9624 26.8 76.4104 26.976C76.8584 27.152 77.2344 27.392 77.5384 27.696L77.1544 28.32ZM84.1388 28.32C84.0961 28.3947 84.0481 28.448 83.9948 28.48C83.9414 28.512 83.8748 28.528 83.7948 28.528C83.7041 28.528 83.6054 28.5013 83.4988 28.448C83.3921 28.3893 83.2668 28.3253 83.1228 28.256C82.9788 28.1867 82.8081 28.1253 82.6108 28.072C82.4188 28.0133 82.1921 27.984 81.9308 27.984C81.7174 27.984 81.5228 28.0107 81.3468 28.064C81.1761 28.112 81.0294 28.184 80.9068 28.28C80.7894 28.3707 80.6988 28.48 80.6348 28.608C80.5708 28.7307 80.5388 28.864 80.5388 29.008C80.5388 29.2 80.5974 29.36 80.7148 29.488C80.8321 29.616 80.9868 29.728 81.1788 29.824C81.3708 29.9147 81.5894 29.9973 81.8348 30.072C82.0801 30.1467 82.3308 30.2267 82.5868 30.312C82.8428 30.3973 83.0934 30.496 83.3388 30.608C83.5841 30.72 83.8028 30.8587 83.9948 31.024C84.1868 31.184 84.3414 31.3813 84.4588 31.616C84.5761 31.8453 84.6348 32.1253 84.6348 32.456C84.6348 32.84 84.5654 33.1947 84.4268 33.52C84.2881 33.8453 84.0854 34.128 83.8188 34.368C83.5521 34.608 83.2188 34.7947 82.8188 34.928C82.4241 35.0613 81.9708 35.128 81.4588 35.128C81.1761 35.128 80.9014 35.1013 80.6348 35.048C80.3734 35 80.1228 34.9333 79.8828 34.848C79.6481 34.7573 79.4268 34.6507 79.2188 34.528C79.0161 34.4053 78.8348 34.272 78.6748 34.128L79.0748 33.472C79.1228 33.392 79.1814 33.3307 79.2508 33.288C79.3254 33.24 79.4161 33.216 79.5228 33.216C79.6348 33.216 79.7441 33.2533 79.8508 33.328C79.9628 33.3973 80.0908 33.4747 80.2348 33.56C80.3841 33.6453 80.5628 33.7253 80.7708 33.8C80.9788 33.8693 81.2374 33.904 81.5468 33.904C81.8028 33.904 82.0241 33.8747 82.2108 33.816C82.3974 33.752 82.5521 33.6667 82.6748 33.56C82.7974 33.4533 82.8881 33.3333 82.9468 33.2C83.0054 33.0613 83.0348 32.9147 83.0348 32.76C83.0348 32.552 82.9761 32.3813 82.8588 32.248C82.7414 32.1147 82.5841 32 82.3868 31.904C82.1948 31.808 81.9734 31.7227 81.7228 31.648C81.4774 31.5733 81.2268 31.4933 80.9708 31.408C80.7148 31.3227 80.4614 31.224 80.2108 31.112C79.9654 31 79.7441 30.8587 79.5468 30.688C79.3548 30.512 79.2001 30.3013 79.0828 30.056C78.9654 29.8053 78.9068 29.5013 78.9068 29.144C78.9068 28.8187 78.9708 28.5093 79.0988 28.216C79.2321 27.9227 79.4241 27.664 79.6748 27.44C79.9308 27.216 80.2428 27.04 80.6108 26.912C80.9841 26.7787 81.4134 26.712 81.8988 26.712C82.4481 26.712 82.9468 26.8 83.3948 26.976C83.8428 27.152 84.2188 27.392 84.5228 27.696L84.1388 28.32ZM90.6111 31.432C89.9978 31.4533 89.4805 31.504 89.0591 31.584C88.6378 31.6587 88.2965 31.7573 88.0351 31.88C87.7738 31.9973 87.5845 32.1387 87.4671 32.304C87.3551 32.4693 87.2991 32.6507 87.2991 32.848C87.2991 33.04 87.3285 33.2053 87.3871 33.344C87.4511 33.4773 87.5365 33.5893 87.6431 33.68C87.7551 33.7653 87.8831 33.8293 88.0271 33.872C88.1765 33.9093 88.3391 33.928 88.5151 33.928C88.9631 33.928 89.3471 33.8453 89.6671 33.68C89.9925 33.5093 90.3071 33.264 90.6111 32.944V31.432ZM86.0511 27.976C86.9738 27.1173 88.0725 26.688 89.3471 26.688C89.8165 26.688 90.2325 26.7653 90.5951 26.92C90.9631 27.0693 91.2698 27.2827 91.5151 27.56C91.7658 27.8373 91.9551 28.168 92.0831 28.552C92.2165 28.9307 92.2831 29.352 92.2831 29.816V35H91.5151C91.3498 35 91.2245 34.976 91.1391 34.928C91.0538 34.8747 90.9818 34.7707 90.9231 34.616L90.7551 33.952C90.5471 34.1387 90.3418 34.3067 90.1391 34.456C89.9365 34.6 89.7258 34.7227 89.5071 34.824C89.2938 34.9253 89.0618 35 88.8111 35.048C88.5658 35.1013 88.2938 35.128 87.9951 35.128C87.6645 35.128 87.3551 35.0827 87.0671 34.992C86.7845 34.9013 86.5391 34.7653 86.3311 34.584C86.1231 34.3973 85.9578 34.168 85.8351 33.896C85.7178 33.624 85.6591 33.304 85.6591 32.936C85.6591 32.6213 85.7418 32.3147 85.9071 32.016C86.0778 31.7173 86.3551 31.4507 86.7391 31.216C87.1285 30.976 87.6378 30.7787 88.2671 30.624C88.9018 30.4693 89.6831 30.3813 90.6111 30.36V29.816C90.6111 29.2293 90.4858 28.792 90.2351 28.504C89.9845 28.216 89.6165 28.072 89.1311 28.072C88.8005 28.072 88.5231 28.1147 88.2991 28.2C88.0751 28.28 87.8805 28.368 87.7151 28.464C87.5498 28.56 87.4031 28.6507 87.2751 28.736C87.1471 28.816 87.0111 28.856 86.8671 28.856C86.7498 28.856 86.6485 28.8267 86.5631 28.768C86.4831 28.704 86.4165 28.6267 86.3631 28.536L86.0511 27.976ZM97.21 30.848C97.7433 30.848 98.1433 30.712 98.41 30.44C98.6767 30.168 98.81 29.8133 98.81 29.376C98.81 28.928 98.6767 28.5733 98.41 28.312C98.1433 28.0507 97.7433 27.92 97.21 27.92C96.682 27.92 96.282 28.0507 96.01 28.312C95.7433 28.5733 95.61 28.928 95.61 29.376C95.61 29.5893 95.6447 29.7867 95.714 29.968C95.7833 30.1493 95.8847 30.3067 96.018 30.44C96.1513 30.568 96.3167 30.6693 96.514 30.744C96.7167 30.8133 96.9487 30.848 97.21 30.848ZM99.602 35.4C99.602 35.2187 99.5487 35.0747 99.442 34.968C99.3407 34.856 99.202 34.7707 99.026 34.712C98.85 34.648 98.6447 34.6027 98.41 34.576C98.1753 34.544 97.9247 34.5227 97.658 34.512C97.3967 34.496 97.1273 34.4827 96.85 34.472C96.578 34.456 96.314 34.4293 96.058 34.392C95.802 34.5253 95.5913 34.6853 95.426 34.872C95.266 35.0587 95.186 35.2747 95.186 35.52C95.186 35.68 95.226 35.8293 95.306 35.968C95.3913 36.1067 95.5193 36.2267 95.69 36.328C95.866 36.4293 96.0873 36.5093 96.354 36.568C96.626 36.6267 96.9513 36.656 97.33 36.656C98.0873 36.656 98.6553 36.5387 99.034 36.304C99.4127 36.0693 99.602 35.768 99.602 35.4ZM101.33 27.136V27.776C101.33 27.9893 101.202 28.12 100.946 28.168L100.13 28.304C100.269 28.6133 100.338 28.9573 100.338 29.336C100.338 29.736 100.258 30.0987 100.098 30.424C99.9433 30.7493 99.7273 31.0267 99.45 31.256C99.1727 31.4853 98.842 31.6613 98.458 31.784C98.074 31.9067 97.658 31.968 97.21 31.968C97.0393 31.968 96.8713 31.96 96.706 31.944C96.546 31.9227 96.3887 31.896 96.234 31.864C96.0793 31.9547 95.9647 32.0507 95.89 32.152C95.8153 32.2533 95.778 32.3573 95.778 32.464C95.778 32.64 95.8553 32.7707 96.01 32.856C96.1647 32.9413 96.3673 33.0027 96.618 33.04C96.874 33.0773 97.1647 33.1013 97.49 33.112C97.8153 33.1227 98.146 33.1413 98.482 33.168C98.818 33.1947 99.1487 33.24 99.474 33.304C99.7993 33.3627 100.087 33.464 100.338 33.608C100.594 33.7467 100.799 33.936 100.954 34.176C101.109 34.416 101.186 34.728 101.186 35.112C101.186 35.464 101.098 35.808 100.922 36.144C100.746 36.48 100.49 36.7787 100.154 37.04C99.8233 37.3013 99.418 37.5093 98.938 37.664C98.458 37.824 97.9113 37.904 97.298 37.904C96.69 37.904 96.1593 37.8453 95.706 37.728C95.258 37.6107 94.882 37.4507 94.578 37.248C94.2793 37.0507 94.0553 36.8213 93.906 36.56C93.762 36.2987 93.69 36.0267 93.69 35.744C93.69 35.36 93.81 35.032 94.05 34.76C94.2953 34.488 94.626 34.2747 95.042 34.12C94.818 34.0133 94.6367 33.8667 94.498 33.68C94.3647 33.4933 94.298 33.248 94.298 32.944C94.298 32.704 94.386 32.4533 94.562 32.192C94.738 31.9307 95.002 31.7093 95.354 31.528C94.9487 31.304 94.6287 31.008 94.394 30.64C94.1593 30.2667 94.042 29.832 94.042 29.336C94.042 28.9307 94.1193 28.5653 94.274 28.24C94.434 27.9147 94.6553 27.6373 94.938 27.408C95.2207 27.1787 95.554 27.0027 95.938 26.88C96.3273 26.7573 96.7513 26.696 97.21 26.696C97.914 26.696 98.5273 26.8427 99.05 27.136H101.33ZM107.9 30C107.9 29.712 107.857 29.4453 107.772 29.2C107.692 28.9493 107.572 28.7333 107.412 28.552C107.252 28.3653 107.052 28.2213 106.812 28.12C106.577 28.0133 106.305 27.96 105.996 27.96C105.372 27.96 104.881 28.1387 104.524 28.496C104.167 28.8533 103.94 29.3547 103.844 30H107.9ZM103.796 31.056C103.817 31.52 103.889 31.9227 104.012 32.264C104.135 32.6 104.297 32.88 104.5 33.104C104.708 33.328 104.953 33.496 105.236 33.608C105.524 33.7147 105.844 33.768 106.196 33.768C106.532 33.768 106.823 33.7307 107.068 33.656C107.313 33.576 107.527 33.4907 107.708 33.4C107.889 33.304 108.044 33.2187 108.172 33.144C108.3 33.064 108.417 33.024 108.524 33.024C108.663 33.024 108.769 33.0773 108.844 33.184L109.332 33.816C109.129 34.056 108.9 34.2587 108.644 34.424C108.388 34.5893 108.116 34.7253 107.828 34.832C107.54 34.9333 107.244 35.0053 106.94 35.048C106.636 35.096 106.34 35.12 106.052 35.12C105.487 35.12 104.961 35.0267 104.476 34.84C103.996 34.648 103.577 34.368 103.22 34C102.868 33.632 102.591 33.176 102.388 32.632C102.191 32.088 102.092 31.4613 102.092 30.752C102.092 30.1867 102.18 29.6587 102.356 29.168C102.537 28.6773 102.793 28.2507 103.124 27.888C103.46 27.5253 103.865 27.24 104.34 27.032C104.82 26.8187 105.361 26.712 105.964 26.712C106.465 26.712 106.929 26.7947 107.356 26.96C107.783 27.12 108.151 27.3573 108.46 27.672C108.769 27.9867 109.009 28.3733 109.18 28.832C109.356 29.2853 109.444 29.8027 109.444 30.384C109.444 30.6507 109.415 30.8293 109.356 30.92C109.297 31.0107 109.191 31.056 109.036 31.056H103.796ZM115.92 28.32C115.877 28.3947 115.829 28.448 115.776 28.48C115.723 28.512 115.656 28.528 115.576 28.528C115.485 28.528 115.387 28.5013 115.28 28.448C115.173 28.3893 115.048 28.3253 114.904 28.256C114.76 28.1867 114.589 28.1253 114.392 28.072C114.2 28.0133 113.973 27.984 113.712 27.984C113.499 27.984 113.304 28.0107 113.128 28.064C112.957 28.112 112.811 28.184 112.688 28.28C112.571 28.3707 112.48 28.48 112.416 28.608C112.352 28.7307 112.32 28.864 112.32 29.008C112.32 29.2 112.379 29.36 112.496 29.488C112.613 29.616 112.768 29.728 112.96 29.824C113.152 29.9147 113.371 29.9973 113.616 30.072C113.861 30.1467 114.112 30.2267 114.368 30.312C114.624 30.3973 114.875 30.496 115.12 30.608C115.365 30.72 115.584 30.8587 115.776 31.024C115.968 31.184 116.123 31.3813 116.24 31.616C116.357 31.8453 116.416 32.1253 116.416 32.456C116.416 32.84 116.347 33.1947 116.208 33.52C116.069 33.8453 115.867 34.128 115.6 34.368C115.333 34.608 115 34.7947 114.6 34.928C114.205 35.0613 113.752 35.128 113.24 35.128C112.957 35.128 112.683 35.1013 112.416 35.048C112.155 35 111.904 34.9333 111.664 34.848C111.429 34.7573 111.208 34.6507 111 34.528C110.797 34.4053 110.616 34.272 110.456 34.128L110.856 33.472C110.904 33.392 110.963 33.3307 111.032 33.288C111.107 33.24 111.197 33.216 111.304 33.216C111.416 33.216 111.525 33.2533 111.632 33.328C111.744 33.3973 111.872 33.4747 112.016 33.56C112.165 33.6453 112.344 33.7253 112.552 33.8C112.76 33.8693 113.019 33.904 113.328 33.904C113.584 33.904 113.805 33.8747 113.992 33.816C114.179 33.752 114.333 33.6667 114.456 33.56C114.579 33.4533 114.669 33.3333 114.728 33.2C114.787 33.0613 114.816 32.9147 114.816 32.76C114.816 32.552 114.757 32.3813 114.64 32.248C114.523 32.1147 114.365 32 114.168 31.904C113.976 31.808 113.755 31.7227 113.504 31.648C113.259 31.5733 113.008 31.4933 112.752 31.408C112.496 31.3227 112.243 31.224 111.992 31.112C111.747 31 111.525 30.8587 111.328 30.688C111.136 30.512 110.981 30.3013 110.864 30.056C110.747 29.8053 110.688 29.5013 110.688 29.144C110.688 28.8187 110.752 28.5093 110.88 28.216C111.013 27.9227 111.205 27.664 111.456 27.44C111.712 27.216 112.024 27.04 112.392 26.912C112.765 26.7787 113.195 26.712 113.68 26.712C114.229 26.712 114.728 26.8 115.176 26.976C115.624 27.152 116 27.392 116.304 27.696L115.92 28.32Z" fill="#5F6B72"/>
<path d="M16 18H8C4.691 18 2 20.691 2 24V37C2 37.553 2.447 38 3 38H16C19.309 38 22 35.309 22 32V24C22 20.691 19.309 18 16 18ZM14 31H7V29H14V31ZM17 27H7V25H17V27Z" fill="#5F6B72"/>
</svg>
