<svg width="127" height="40" viewBox="0 0 127 40" fill="none" xmlns="http://www.w3.org/2000/svg">
<g clip-path="url(#clip0)">
<path d="M62.9208 40V39.9351C62.9843 39.8539 63.0953 39.8051 63.1906 39.8214C63.6508 39.8051 64.0951 39.8051 64.5553 39.8214C64.6505 39.8214 64.7616 39.8539 64.8251 39.9351V40H62.9208Z" fill="#D1EFFA"/>
<path d="M64.825 39.935C64.1902 39.9188 63.5555 39.9188 62.9207 39.935C62.0479 39.8863 61.1751 39.8538 60.3023 39.7888C57.9855 39.6102 55.6844 39.2529 53.431 38.717C45.6393 36.8656 38.7998 33.1465 32.833 27.7385C32.2776 27.2351 31.7539 26.7154 31.2144 26.1957C31.0874 26.082 30.9763 25.9196 30.9129 25.7572C30.8177 25.5298 30.8653 25.2862 31.0239 25.1076C31.1826 24.9289 31.4365 24.864 31.6587 24.9614C31.8015 25.0264 31.9444 25.0913 32.0713 25.1725C37.7683 28.7779 43.989 31.4088 50.5111 32.9679C52.7011 33.4876 54.9069 33.8936 57.1285 34.1859C60.3182 34.5919 63.5396 34.7381 66.7452 34.6244C68.4749 34.5757 70.1887 34.4133 71.9026 34.1859C75.9016 33.6662 79.853 32.7405 83.6774 31.4413C85.6928 30.7592 87.6606 29.9797 89.5807 29.0702C89.8664 28.9078 90.2155 28.8591 90.5329 28.9403C91.0565 29.0702 91.3739 29.6224 91.247 30.1583C91.2311 30.2233 91.1994 30.3045 91.1676 30.3694C91.0407 30.613 90.8661 30.8242 90.6439 30.9866C88.819 32.4482 86.8512 33.7312 84.7724 34.8031C80.8527 36.8331 76.6633 38.2785 72.3469 39.1068C69.8555 39.5615 67.3482 39.8376 64.825 39.935Z" fill="#8999AB"/>
<path d="M41.3231 7.01585C41.7198 6.77225 42.1324 6.5124 42.5608 6.28504C43.6717 5.70038 44.9095 5.40806 46.1631 5.47302C47.0676 5.52174 47.8928 5.78159 48.5276 6.46368C49.1306 7.09705 49.3528 7.87659 49.4163 8.72109C49.4321 8.89973 49.4321 9.07838 49.4321 9.27326V17.6858C49.4321 18.4166 49.3369 18.514 48.6228 18.514H46.6868C46.5598 18.514 46.4329 18.514 46.3059 18.4978C46.1155 18.4815 45.9568 18.3191 45.9251 18.1243C45.8933 17.9456 45.8933 17.767 45.8933 17.5883V10.069C45.9092 9.76047 45.8775 9.46815 45.7981 9.17582C45.6712 8.67237 45.2268 8.31508 44.719 8.2826C43.7828 8.21764 42.8465 8.41252 41.9896 8.81853C41.8626 8.85101 41.7833 8.98094 41.7991 9.11086V17.6533C41.7991 17.8157 41.7991 17.9619 41.7674 18.1243C41.7674 18.3516 41.5928 18.514 41.3707 18.514C41.1326 18.5303 40.8946 18.5303 40.6407 18.5303H38.9586C38.3714 18.5303 38.2445 18.3841 38.2445 17.7832V10.1015C38.2445 9.82543 38.2286 9.53311 38.1651 9.25702C38.054 8.70485 37.5938 8.31508 37.0543 8.2826C36.1021 8.21764 35.1341 8.41252 34.2772 8.83477C34.1502 8.86725 34.0709 9.01342 34.1026 9.14334V17.7994C34.1026 18.4003 33.9757 18.5303 33.3885 18.5303H31.2621C30.7067 18.5303 30.5638 18.3679 30.5638 17.8157V6.54488C30.5638 6.41496 30.5797 6.28504 30.6114 6.15511C30.6749 5.96023 30.8654 5.84655 31.0558 5.84655H33.0394C33.3251 5.84655 33.4996 6.02519 33.5948 6.30128C33.6742 6.52864 33.7218 6.73977 33.8011 6.98337C33.9598 6.98337 34.055 6.86969 34.1661 6.80473C35.0389 6.25256 35.9593 5.78159 36.9908 5.5867C37.7843 5.4243 38.5777 5.4243 39.3712 5.5867C40.117 5.74911 40.7835 6.20384 41.212 6.85345C41.2437 6.90217 41.2754 6.93465 41.3072 6.96713C41.2913 6.98337 41.3072 6.98337 41.3231 7.01585Z" fill="#8999AB"/>
<path d="M74.2195 15.1036C74.3147 14.7788 74.4099 14.4702 74.5052 14.1454C75.2351 11.6281 75.9651 9.12713 76.6951 6.60988L76.7903 6.31755C76.8697 6.02522 77.1394 5.84658 77.4251 5.84658H79.8372C80.4402 5.84658 80.5671 6.02522 80.3608 6.60988L79.4087 9.19209C78.3455 12.0179 77.2822 14.86 76.219 17.6858C76.1873 17.7832 76.1397 17.8807 76.1079 17.9781C75.9969 18.3192 75.6636 18.5465 75.3145 18.5141C74.6162 18.4978 73.918 18.4978 73.2198 18.5141C72.7278 18.5303 72.4422 18.3029 72.2676 17.8482C71.8709 16.7763 71.4583 15.6882 71.0616 14.6164C70.1094 12.0666 69.1414 9.5169 68.1893 6.95092C68.0941 6.75604 68.0306 6.52867 67.983 6.31755C67.9354 5.99274 68.0464 5.83034 68.3638 5.83034C69.2684 5.8141 70.1729 5.83034 71.0616 5.83034C71.4424 5.83034 71.617 6.09018 71.7122 6.43123C71.8868 7.04836 72.0613 7.68174 72.2517 8.29887C72.9024 10.5563 73.5371 12.8299 74.1878 15.0873C74.1719 15.1036 74.1878 15.1036 74.2195 15.1036Z" fill="#8999AB"/>
<path d="M17.8686 7.63291C17.9797 7.60043 18.0749 7.53547 18.1383 7.43802C18.424 7.1457 18.7255 6.86961 19.0429 6.60977C19.8681 5.96015 20.8996 5.63535 21.931 5.71655C22.3436 5.73279 22.4865 5.86271 22.5182 6.26872C22.5499 6.82089 22.5341 7.3893 22.5341 7.94148C22.5499 8.16884 22.5341 8.37997 22.5023 8.60733C22.4389 8.89966 22.3278 9.01334 22.0421 9.04582C21.82 9.06206 21.6137 9.04582 21.3915 9.02958C20.3283 8.93214 19.2968 9.14326 18.297 9.48431C18.0749 9.56551 18.0749 9.72792 18.0749 9.90656V17.7019C18.0749 17.8481 18.0749 17.978 18.059 18.1242C18.0431 18.3353 17.8844 18.4977 17.6781 18.4977C17.5671 18.5139 17.4401 18.5139 17.329 18.5139H15.266C15.155 18.5139 15.028 18.5139 14.9169 18.4977C14.7106 18.4815 14.5519 18.3028 14.5361 18.0917C14.5202 17.9618 14.5202 17.8319 14.5202 17.7019V6.65849C14.5202 5.91143 14.5995 5.83023 15.3295 5.83023H16.853C17.2655 5.83023 17.456 5.97639 17.5671 6.3824C17.6781 6.78841 17.7734 7.19442 17.8686 7.63291Z" fill="#8999AB"/>
<path d="M92.104 24.1007C93.1513 24.1332 94.1828 24.1982 95.1984 24.4742C95.4841 24.5554 95.7538 24.6529 96.0236 24.7828C96.3886 24.929 96.6266 25.2863 96.6743 25.676C96.7377 26.1308 96.7536 26.6017 96.7219 27.0727C96.5156 29.8498 95.6745 32.5295 94.278 34.9168C93.7702 35.7775 93.1513 36.5571 92.4372 37.2392C92.2944 37.3853 92.1198 37.499 91.9294 37.564C91.6279 37.6452 91.4375 37.4828 91.4216 37.1742C91.4375 37.0118 91.4692 36.8494 91.5327 36.687C92.0881 35.1604 92.6276 33.65 93.0561 32.0747C93.31 31.214 93.4846 30.337 93.5957 29.4438C93.6274 29.119 93.6433 28.7942 93.6115 28.4694C93.5957 27.9172 93.2465 27.4462 92.7229 27.2838C92.2309 27.1214 91.7231 27.024 91.1994 26.9915C89.7395 26.9265 88.2795 26.9915 86.8354 27.1864L84.9153 27.43C84.709 27.4462 84.5185 27.43 84.4075 27.2351C84.2964 27.0402 84.344 26.8453 84.4551 26.6504C84.582 26.4718 84.7407 26.3094 84.9311 26.1957C86.1055 25.335 87.4226 24.8153 88.8191 24.4742C89.8982 24.2469 90.9931 24.1332 92.104 24.1007Z" fill="#8999AB"/>
<path d="M85.4548 12.1803V18.0268C85.4231 18.3516 85.2802 18.4978 84.9629 18.514C84.1059 18.5303 83.2649 18.5303 82.408 18.514C82.0906 18.514 81.9478 18.3516 81.916 18.0431C81.9002 17.9456 81.9001 17.8319 81.9001 17.7345V6.49617C81.916 5.99272 82.043 5.84656 82.5349 5.84656H84.82C85.312 5.84656 85.4548 5.99272 85.4548 6.49617V12.1803Z" fill="#8999AB"/>
<path d="M24.0575 12.1478V6.38247C24.0734 5.9927 24.2162 5.84654 24.597 5.8303C25.4222 5.81406 26.2474 5.81406 27.0726 5.8303C27.4376 5.8303 27.5487 5.94398 27.5804 6.31751C27.5963 6.46367 27.5963 6.59359 27.5963 6.73976V17.5558C27.5963 17.7345 27.5804 17.9131 27.5646 18.0918C27.5487 18.3029 27.39 18.4491 27.1837 18.4653C27.0885 18.4815 27.0091 18.4815 26.9139 18.4815H24.7081C24.6288 18.4815 24.5653 18.4815 24.486 18.4653C24.2638 18.4491 24.0734 18.2704 24.0575 18.043C24.0416 17.9131 24.0416 17.7832 24.0416 17.6533C24.0575 15.8506 24.0575 13.9992 24.0575 12.1478Z" fill="#8999AB"/>
<path d="M25.8983 0.0161122C26.1522 -0.00012819 26.4061 0.0485929 26.6441 0.129795C27.501 0.422121 27.9454 1.18542 27.866 2.17608C27.8026 3.02058 27.1837 3.70267 26.3585 3.8326C26.0094 3.89756 25.6444 3.89756 25.2952 3.8326C24.3907 3.65395 23.7242 2.97186 23.7877 1.80255C23.8829 0.649486 24.6287 0.0161122 25.8983 0.0161122Z" fill="#8999AB"/>
<path d="M83.6934 0.0162118C84.0107 -0.016269 84.3281 0.0486925 84.6296 0.178615C85.2485 0.422221 85.677 1.00687 85.7087 1.68897C85.8357 3.16684 84.8677 3.9139 83.5823 3.88142C83.4077 3.88142 83.2331 3.84894 83.0586 3.81645C82.0747 3.57285 81.5669 2.79331 81.6621 1.67273C81.7414 0.779508 82.4238 0.113654 83.3601 0.0324521C83.4712 0.0162118 83.5823 -2.85963e-05 83.6934 0.0162118Z" fill="#8999AB"/>
<path d="M12.1716 10.8161C12.1081 9.97162 11.8859 9.14336 11.5527 8.38006C10.902 6.98339 9.90229 5.96025 8.37886 5.60296C6.63326 5.21319 5.06223 5.60296 3.63401 6.69107C3.5388 6.78851 3.42772 6.86971 3.30076 6.93467C3.26902 6.91843 3.23729 6.90219 3.23729 6.88595C3.18968 6.72355 3.15794 6.56114 3.11033 6.39874C2.98338 5.99273 2.82469 5.84657 2.39623 5.84657C1.92016 5.84657 1.42821 5.86281 0.952143 5.84657C0.587155 5.83033 0.253905 5.87905 0 6.17138C0 11.8555 0 17.5559 0.0158691 23.2238C0.222167 23.5648 0.539548 23.6298 0.904536 23.6135C1.47582 23.5973 2.04711 23.6135 2.61839 23.6135C3.61814 23.6135 3.61814 23.6135 3.61814 22.6066V17.9781C3.61814 17.8644 3.57054 17.7345 3.68162 17.6371C4.47507 18.2704 5.44308 18.6602 6.44283 18.7577C7.83931 18.9038 9.10884 18.5465 10.1721 17.5721C10.9496 16.8413 11.5209 15.8994 11.8224 14.86C12.2509 13.5283 12.2826 12.1803 12.1716 10.8161ZM8.37886 14.1779C8.26778 14.6813 8.01387 15.1361 7.64888 15.4771C7.23629 15.8344 6.72848 16.0455 6.18893 16.0455C5.37961 16.0942 4.58616 15.9156 3.87205 15.5258C3.69749 15.4446 3.58641 15.266 3.60227 15.0711V12.1316C3.60227 11.1572 3.61814 10.1827 3.60227 9.20832C3.58641 8.98096 3.71336 8.78607 3.91966 8.70487C4.79245 8.28262 5.69699 8.08774 6.64913 8.28262C7.31563 8.38006 7.88692 8.81856 8.15669 9.45193C8.39473 9.97162 8.53755 10.54 8.56929 11.1084C8.6645 12.1478 8.6645 13.1872 8.37886 14.1779Z" fill="#8999AB"/>
<path d="M126.984 11.1733V11.2383C126.921 11.1733 126.889 11.0759 126.921 10.9947V10.8648C126.921 10.8648 126.921 10.8485 126.937 10.8485H126.921V10.6861H126.952C126.952 10.6699 126.937 10.6699 126.937 10.6536C126.905 10.3451 126.841 10.0365 126.762 9.74418C126.175 7.60045 124.858 6.18754 122.715 5.63537C121.716 5.39176 120.7 5.35928 119.684 5.52168C117.542 5.84649 116.003 7.0158 115.257 9.09456C114.527 11.0759 114.543 13.2521 115.273 15.2334C115.908 17.0361 117.177 18.1729 119.002 18.6439C119.97 18.8875 120.986 18.9525 121.985 18.8063C125.318 18.4003 126.698 15.8181 126.921 13.5769H126.905V13.3495C126.889 13.2521 126.873 13.1709 126.968 13.1059V13.1384C126.968 13.1222 126.984 13.0897 127 13.0734V11.2058C127 11.1896 126.984 11.1896 126.984 11.1733ZM123.176 14.259C123.08 14.6 122.938 14.9086 122.731 15.2009C122.382 15.7044 121.827 16.0292 121.224 16.0779C120.922 16.1104 120.621 16.1104 120.319 16.0454C119.653 15.9155 119.097 15.4608 118.827 14.8274C118.589 14.324 118.447 13.7718 118.399 13.2196C118.32 12.2614 118.304 11.3033 118.526 10.3613C118.605 9.98778 118.764 9.61425 118.954 9.28945C119.303 8.70479 119.907 8.33126 120.573 8.28254C120.875 8.25006 121.176 8.25006 121.478 8.31502C122.112 8.44495 122.636 8.8672 122.922 9.46809C123.191 10.0365 123.35 10.6699 123.382 11.3032C123.398 11.5956 123.414 11.8879 123.398 12.1802C123.445 12.8948 123.366 13.5931 123.176 14.259Z" fill="#8999AB"/>
<path d="M99.1657 0.129822H96.9599C96.3569 0.129822 96.2458 0.243504 96.2458 0.860638V6.12251C96.2458 6.2362 96.2934 6.34988 96.2141 6.46356C96.0713 6.44732 95.9919 6.34988 95.8808 6.28492C94.2305 5.29426 92.5007 5.11561 90.7551 5.94387C89.5332 6.52852 88.7715 7.58415 88.2796 8.83465C87.8035 10.0364 87.6924 11.3032 87.7241 12.5862C87.7241 13.788 87.9939 14.9735 88.5176 16.0454C89.1206 17.2309 89.9934 18.1404 91.2629 18.5301C92.9927 19.0823 94.6113 18.8062 96.0871 17.6856C96.1982 17.6207 96.2617 17.507 96.4045 17.4745C96.4839 17.6532 96.5473 17.8481 96.5791 18.0429C96.6425 18.3028 96.8647 18.4814 97.1345 18.4814H97.5153C98.0866 18.4814 98.642 18.4977 99.1975 18.4814C99.6418 18.4814 99.7687 18.3353 99.7846 17.8643V0.746955C99.7687 0.243504 99.6418 0.129822 99.1657 0.129822ZM96.2617 12.0827V15.0385C96.2934 15.2334 96.1823 15.412 96.0078 15.4932C95.2461 15.9317 94.3733 16.1103 93.5163 15.9804C92.7864 15.8992 92.1516 15.4445 91.8183 14.7786C91.5644 14.2589 91.4216 13.7068 91.374 13.1383C91.2471 12.1152 91.3264 11.0758 91.5644 10.0852C91.6438 9.80908 91.739 9.54923 91.8818 9.28938C92.2151 8.65601 92.8498 8.25 93.5481 8.20128C94.3891 8.12008 95.2302 8.28248 95.9919 8.63977C96.1823 8.70473 96.2934 8.89962 96.2776 9.11074C96.2458 10.1176 96.2617 11.0921 96.2617 12.0827Z" fill="#8999AB"/>
<path d="M55.2243 13.2034C56.4144 13.4308 57.6364 13.447 58.8265 13.2521C59.5248 13.1547 60.1913 12.9436 60.8102 12.6025C61.5243 12.1803 62.0479 11.5956 62.2701 10.7836C62.8255 8.73732 61.9686 6.6748 59.8898 5.9115C58.8741 5.57045 57.795 5.45677 56.7318 5.60293C54.2245 5.89526 52.59 7.30817 51.8442 9.76046C51.3205 11.4332 51.3839 13.1385 51.8124 14.8275C52.3678 16.9874 53.7643 18.2704 55.8749 18.7251C57.0809 19.0012 58.3029 18.9525 59.5089 18.7576C60.1437 18.6439 60.7784 18.4815 61.3814 18.2379C61.7464 18.0918 61.9369 17.8644 61.921 17.4422C61.9051 17.0524 61.921 16.6464 61.921 16.2404C61.921 15.7532 61.7306 15.607 61.2704 15.7207C60.8102 15.8344 60.3658 15.9318 59.9056 16.0292C58.9217 16.2404 57.9061 16.2404 56.9222 16.0617C55.5734 15.7856 54.7006 14.6001 54.7799 13.1385C54.9227 13.1547 55.0814 13.1709 55.2243 13.2034ZM54.8275 10.7186C54.8751 10.3289 54.9862 9.95535 55.129 9.59806C55.6051 8.41251 56.6049 8.00651 57.6205 8.07147C57.9061 8.08771 58.1918 8.15267 58.4615 8.26635C58.8741 8.44499 59.1439 8.83476 59.1915 9.28949C59.2391 9.56558 59.2233 9.85791 59.1439 10.134C58.9535 10.7186 58.4933 10.9622 57.9379 11.0759C57.6046 11.1571 57.2555 11.1896 56.9064 11.1571C56.2875 11.1571 55.6527 11.1084 55.0338 11.011C54.7958 10.9785 54.7958 10.9785 54.8275 10.7186Z" fill="#8999AB"/>
<path d="M108.751 13.3658C109.671 13.3008 110.591 13.1222 111.417 12.6674C112.258 12.2452 112.845 11.4494 113.019 10.5075C113.13 9.92281 113.13 9.30567 113.003 8.72102C112.67 7.25939 111.766 6.34993 110.401 5.87896C109.639 5.63535 108.83 5.53791 108.036 5.57039C105.37 5.63535 103.339 7.01578 102.514 9.74416C101.959 11.5468 102.038 13.382 102.578 15.1847C103.133 17.0361 104.402 18.1567 106.212 18.6601C106.989 18.855 107.798 18.9362 108.592 18.9037C109.75 18.8875 110.909 18.6601 112.004 18.2379C112.464 18.0592 112.575 17.8968 112.575 17.3934V16.2241C112.559 15.7531 112.369 15.5907 111.909 15.7044C111.559 15.8018 111.226 15.883 110.877 15.9642C109.814 16.2241 108.703 16.2728 107.624 16.0779C106.545 15.8668 105.815 15.2334 105.529 14.1291C105.45 13.8043 105.386 13.4794 105.355 13.1384C105.434 13.1384 105.513 13.1384 105.577 13.1709C106.624 13.3658 107.687 13.447 108.751 13.3658ZM105.434 10.7673C105.545 10.1339 105.688 9.5168 106.069 8.99711C106.656 8.20133 107.465 7.97396 108.386 8.07141C108.465 8.07141 108.528 8.10389 108.608 8.10389C109.719 8.28253 109.988 9.19199 109.782 10.069C109.623 10.7186 109.1 10.9622 108.513 11.0759C108.195 11.1408 107.862 11.1733 107.529 11.1571C106.878 11.1408 106.243 11.0921 105.609 10.9947C105.466 10.9784 105.402 10.9135 105.434 10.7673Z" fill="#8999AB"/>
</g>
<defs>
<clipPath id="clip0">
<rect width="127" height="40" fill="white"/>
</clipPath>
</defs>
</svg>
