<svg width="40" height="40" viewBox="0 0 40 40" fill="none" xmlns="http://www.w3.org/2000/svg">
<path d="M28.8921 17.889C28.8861 17.86 28.8771 17.83 28.8671 17.802L26.7631 11.323C26.6471 10.981 26.3251 10.751 25.9631 10.753C25.6021 10.751 25.2821 10.984 25.1741 11.328L23.1681 17.503H16.8341L14.8261 11.327C14.7181 10.984 14.3981 10.751 14.0401 10.752H14.0341C13.6731 10.752 13.3521 10.984 13.2391 11.327L11.1331 17.815C11.1331 17.82 11.1281 17.825 11.1261 17.831L10.0591 21.112C9.89806 21.606 10.0721 22.146 10.4941 22.452L19.7211 29.158C19.8881 29.279 20.1141 29.278 20.2791 29.155L29.5081 22.452C29.9271 22.146 30.1041 21.606 29.9431 21.112L28.8921 17.889ZM25.9701 11.936L27.7791 17.502H24.1601L25.9701 11.936ZM14.0301 11.936L15.8421 17.502H12.2281L14.0301 11.936ZM11.0481 21.688C10.9581 21.624 10.9211 21.508 10.9551 21.404L11.7481 18.967L17.5651 26.423L11.0481 21.688ZM12.5471 18.449H16.1481L18.7211 26.365L12.5471 18.449ZM19.9991 27.243L17.1431 18.445H22.8611L21.0691 23.96L19.9991 27.243ZM21.2811 26.366L23.7481 18.778L23.8541 18.449H27.4581L21.8721 25.605L21.2811 26.366ZM28.9521 21.688L22.4331 26.421L22.4551 26.392L28.2491 18.967L29.0411 21.403C29.0781 21.509 29.0401 21.624 28.9521 21.688Z" fill="#FA7035"/>
<rect x="0.5" y="0.5" width="39" height="39" rx="3.5" stroke="#FA7035"/>
</svg>
