<svg width="75%" class="svg-logo" height="100" viewBox="0 0 154 24" fill="none" xmlns="http://www.w3.org/2000/svg">
<path d="M0.665527 18.9091H3.7718V11.7178C3.7718 10.0887 3.49154 7.69161 3.32805 6.06249H3.42147L4.79944 10.112L7.48531 17.3498H9.47053L12.133 10.112L13.5344 6.06249H13.6512C13.4643 7.69161 13.2074 10.0887 13.2074 11.7178V18.9091H16.3604V1.66394H12.5301L9.65737 9.73961C9.28368 10.8102 8.98006 11.9505 8.60637 13.0443H8.4896C8.13927 11.9505 7.81229 10.8102 7.4386 9.73961L4.49582 1.66394H0.665527V18.9091Z" fill="#37464F"/>
<path d="M26.0181 19.2349C27.6296 19.2349 29.2879 18.6764 30.5724 17.792L29.4047 15.6975C28.4704 16.2793 27.5362 16.6051 26.4619 16.6051C24.5234 16.6051 23.122 15.488 22.8418 13.3469H30.8994C30.9928 13.0444 31.0629 12.416 31.0629 11.7644C31.0629 8.18038 29.1945 5.55054 25.5977 5.55054C22.4915 5.55054 19.502 8.18038 19.502 12.3927C19.502 16.6982 22.3513 19.2349 26.0181 19.2349ZM22.7951 11.0662C23.052 9.1811 24.2665 8.20365 25.6444 8.20365C27.326 8.20365 28.1201 9.32074 28.1201 11.0662H22.7951Z" fill="#37464F"/>
<path d="M33.8906 18.9091H37.3239V9.9491C38.2815 8.99492 38.9588 8.48292 40.0331 8.48292C41.3177 8.48292 41.8782 9.1811 41.8782 11.2058V18.9091H45.3114V10.7869C45.3114 7.50547 44.097 5.55054 41.2709 5.55054C39.4959 5.55054 38.1647 6.48144 37.0203 7.59856H36.9502L36.6933 5.87636H33.8906V18.9091Z" fill="#37464F"/>
<path d="M53.6405 19.2349C54.7849 19.2349 55.6958 18.9789 56.3965 18.7462L55.8359 16.256C55.4856 16.3957 54.9718 16.5353 54.5514 16.5353C53.3836 16.5353 52.7764 15.8371 52.7764 14.3477V8.57603H55.9994V5.87637H52.7764V2.36218H49.927L49.53 5.87637L47.498 6.03927V8.57603H49.3431V14.3477C49.3431 17.2568 50.5343 19.2349 53.6405 19.2349Z" fill="#37464F"/>
<path d="M63.6918 19.2349C66.9616 19.2349 69.9744 16.7215 69.9744 12.3927C69.9744 8.06401 66.9616 5.55054 63.6918 5.55054C60.422 5.55054 57.4092 8.06401 57.4092 12.3927C57.4092 16.7215 60.422 19.2349 63.6918 19.2349ZM63.6918 16.4422C61.9168 16.4422 60.9125 14.8596 60.9125 12.3927C60.9125 9.9491 61.9168 8.34329 63.6918 8.34329C65.4668 8.34329 66.4711 9.9491 66.4711 12.3927C66.4711 14.8596 65.4668 16.4422 63.6918 16.4422Z" fill="#37464F"/>
<path d="M72.8467 18.9091H76.2796V11.136C77.0037 9.25092 78.2415 8.57601 79.2691 8.57601C79.8063 8.57601 80.18 8.64583 80.6471 8.78547L81.231 5.8298C80.8339 5.6669 80.4135 5.55054 79.6895 5.55054C78.3349 5.55054 76.9336 6.48144 75.976 8.18038H75.9059L75.649 5.87636H72.8467V18.9091Z" fill="#37464F"/>
<path d="M82.8594 23.9127H86.2926V19.9564L86.1758 17.8153C87.1801 18.7229 88.2778 19.2349 89.4223 19.2349C92.295 19.2349 94.9809 16.6516 94.9809 12.1833C94.9809 8.18037 93.0657 5.55054 89.8427 5.55054C88.4413 5.55054 87.0867 6.29526 85.989 7.22617H85.9189L85.662 5.87636H82.8594V23.9127ZM88.6515 16.4189C87.9509 16.4189 87.1101 16.1629 86.2926 15.4415V9.71637C87.1801 8.80873 87.9742 8.36655 88.8617 8.36655C90.6601 8.36655 91.4542 9.73964 91.4542 12.2298C91.4542 15.0691 90.2397 16.4189 88.6515 16.4189Z" fill="#03A5FF"/>
<path d="M100.794 19.2349C102.288 19.2349 103.596 18.4902 104.741 17.5127H104.834L105.068 18.9091H107.87V11.2989C107.87 7.52873 106.165 5.55054 102.849 5.55054C100.794 5.55054 98.9251 6.31853 97.3836 7.27272L98.6215 9.53019C99.8359 8.83201 101.004 8.29673 102.218 8.29673C103.83 8.29673 104.39 9.27419 104.46 10.5542C99.182 11.1127 96.9165 12.5789 96.9165 15.3716C96.9165 17.5826 98.458 19.2349 100.794 19.2349ZM101.915 16.5586C100.91 16.5586 100.186 16.1164 100.186 15.0924C100.186 13.9287 101.261 13.0444 104.46 12.6487V15.2786C103.62 16.0931 102.896 16.5586 101.915 16.5586Z" fill="#03A5FF"/>
<path d="M111.37 18.9091H114.803V5.87637H111.37V18.9091ZM113.098 3.78182C114.266 3.78182 115.083 3.03709 115.083 1.89674C115.083 0.779637 114.266 0.0349121 113.098 0.0349121C111.907 0.0349121 111.089 0.779637 111.089 1.89674C111.089 3.03709 111.907 3.78182 113.098 3.78182Z" fill="#03A5FF"/>
<path d="M118.462 18.9091H121.896V11.136C122.62 9.25092 123.858 8.57601 124.885 8.57601C125.422 8.57601 125.796 8.64582 126.263 8.78546L126.847 5.8298C126.45 5.6669 126.03 5.55054 125.306 5.55054C123.951 5.55054 122.55 6.48144 121.592 8.18037H121.522L121.265 5.87636H118.462V18.9091Z" fill="#03A5FF"/>
<path d="M134.06 19.2349C135.672 19.2349 137.33 18.6764 138.614 17.792L137.447 15.6975C136.512 16.2793 135.578 16.6051 134.504 16.6051C132.565 16.6051 131.164 15.488 130.884 13.3469H138.941C139.035 13.0444 139.105 12.416 139.105 11.7644C139.105 8.18037 137.236 5.55054 133.64 5.55054C130.533 5.55054 127.544 8.18037 127.544 12.3927C127.544 16.6982 130.393 19.2349 134.06 19.2349ZM130.837 11.0662C131.094 9.1811 132.308 8.20364 133.686 8.20364C135.368 8.20364 136.162 9.32073 136.162 11.0662H130.837Z" fill="#03A5FF"/>
<path d="M146.533 19.2349C147.888 19.2349 149.196 18.4901 150.154 17.5592H150.247L150.504 18.9091H153.283V0.337402H149.873V4.92213L149.99 6.97013C149.056 6.10904 148.145 5.5505 146.674 5.5505C143.848 5.5505 141.185 8.15706 141.185 12.3927C141.185 16.6749 143.287 19.2349 146.533 19.2349ZM147.421 16.4189C145.693 16.4189 144.712 15.0691 144.712 12.3694C144.712 9.76287 145.95 8.36651 147.421 8.36651C148.238 8.36651 149.079 8.62251 149.873 9.34397V15.0691C149.103 16.0465 148.332 16.4189 147.421 16.4189Z" fill="#03A5FF"/>
</svg>
